{"title":"18+ The Possession Experiment 2016 Movies HDRip XviD New ~ ☻rDX☻","uid":16031930,"size":751266213,"categoryP":"video","categoryS":"movies","magnet":"?xt=urn:btih:2e691a4d32f447677c4d8b639c603c132d8c1155&amp;dn=18%2B+The+Possession+Experiment+2016+Movies+HDRip+XviD+New+%7E+%E2%98%BBrDX%E2%98%BB&amp;tr=udp%3A%2F%2Ftracker.leechers-paradise.org%3A6969&amp;tr=udp%3A%2F%2Fzer0day.ch%3A1337&amp;tr=udp%3A%2F%2Fopen.demonii.com%3A1337&amp;tr=udp%3A%2F%2Ftracker.coppersurfer.tk%3A6969&amp;tr=udp%3A%2F%2Fexodus.desync.com%3A6969","seeders":1,"leechers":58,"uploader":"basicssom","files":2,"time":1476435441,"description":"----------------------------------------------------------------\r\n18+ The Possession Experiment 2016 English Movies HDRip XviD AAC New Source with Sample ☻rDX☻\r\n\r\nSCREEN SHOTS &amp; POSTER:\r\n  \nhttp://postimage.co.nr/2016/10/debit/index.htm  \nhttp://postimage.co.nr/2016/10/debit/1.html  \nhttp://postimage.co.nr/2016/10/debit/2.html  \nhttp://postimage.co.nr/2016/10/debit/3.html  \nhttp://postimage.co.nr/2016/10/debit/4.html  \nhttp://postimage.co.nr/2016/10/debit/5.html  \nhttp://postimage.co.nr/2016/10/debit/6.html  \nhttp://postimage.co.nr/2016/10/debit/7.html  \nhttp://postimage.co.nr/2016/10/debit/8.html  \nhttp://postimage.co.nr/2016/10/debit/9.html  \nhttp://postimage.co.nr/2016/10/debit/10.html\r\n\r\nFormat                                   : Matroska\r\nFormat version                           : Version 4 / Version 2\r\nFile size                                : 711 MiB\r\nDuration                                 : 1 h 24 min\r\nOverall bit rate                         : 1 176 kb/s\r\nMovie name                               : The Possession Experiment 2016 English Movies HDRip XviD AAC New Source ☻rDX☻\r\n\r\nVideo\r\nID                                       : 1\r\nFormat                                   : AVC\r\nFormat/Info                              : Advanced Video Codec\r\nFormat profile                           :   \r\nFormat settings, CABAC                   : Yes\r\nFormat settings, ReFrames                : 5 frames\r\nCodec ID                                 : V_MPEG4/ISO/AVC\r\nDuration                                 : 1 h 24 min\r\nBit rate                                 : 1 000 kb/s\r\nWidth                                    : 720 pixels\r\nHeight                                   : 304 pixels\r\nDisplay aspect ratio                     : 2.35:1\r\nFrame rate mode                          : Constant\r\nFrame rate                               : 24.000 FPS\r\nStandard                                 : Component\r\nColor space                              : YUV\r\nChroma subsampling                       : 4:2:0\r\nBit depth                                : 8 bits\r\nScan type                                : Progressive\r\nBits/(Pixel*Frame)                       : 0.190\r\nStream size                              : 581 MiB (82%)\r\nTitle                                    : ☻rDX☻\r\nWriting library                          : XviD\r\n\r\nAudio\r\nID                                       : 2\r\nFormat                                   : AC-3\r\nFormat/Info                              : Audio Coding 3\r\nMode extension                           : CM (complete main)\r\nFormat settings, Endianness              : Big\r\nCodec ID                                 : A_AC3\r\nDuration                                 : 1 h 24 min\r\nBit rate mode                            : Constant\r\nBit rate                                 : 192 kb/s\r\nChannel(s)                               : 2 channels\r\nChannel positions                        : Front: L R\r\nSampling rate                            : 48.0 kHz\r\nFrame rate                               : 31.250 FPS (1536 spf)\r\nCompression mode                         : Lossy\r\nStream size                              : 116 MiB (16%)\r\nTitle                                    : ☻rDX☻\r\n\r\nIMDB \nhttp://www.imdb.com/title/tt3697398/","torrent":{"xt":"urn:btih:2e691a4d32f447677c4d8b639c603c132d8c1155","amp;dn":"18%2B+The+Possession+Experiment+2016+Movies+HDRip+XviD+New+%7E+%E2%98%BBrDX%E2%98%BB","amp;tr":["udp%3A%2F%2Ftracker.leechers-paradise.org%3A6969","udp%3A%2F%2Fzer0day.ch%3A1337","udp%3A%2F%2Fopen.demonii.com%3A1337","udp%3A%2F%2Ftracker.coppersurfer.tk%3A6969","udp%3A%2F%2Fexodus.desync.com%3A6969"],"infoHash":"2e691a4d32f447677c4d8b639c603c132d8c1155","infoHashBuffer":{"type":"Buffer","data":[46,105,26,77,50,244,71,103,124,77,139,99,156,96,60,19,45,140,17,85]},"announce":[],"urlList":[]}}